<svg width="80" height="80" viewBox="0 0 80 80" fill="none" xmlns="http://www.w3.org/2000/svg">
<g clip-path="url(#clip0_15_66)">
<path d="M1.06664 77.9L6.66664 78.3666L20 77.9H58.6666L68.6666 78.1H72.8333C73.3661 78.1344 73.9005 78.1344 74.4333 78.1C74.4333 78.1 79.9 78.5333 79.9 76.4666C79.9 74.4 74.4333 74.8333 74.4333 74.8333H68.6666L58.6666 74.6H35.3333C30.1666 74.6 25 74.6 19.8333 74.8666L6.49997 75.6C5.39337 75.4584 4.27324 75.4584 3.16664 75.6C2.5333 75.6 1.8333 75.8666 0.933305 76.0333C0.671077 76.0586 0.42842 76.1831 0.254939 76.3814C0.0814579 76.5797 -0.00974602 76.8367 -2.85773e-05 77.1C0.0482531 77.3412 0.183736 77.5561 0.380518 77.7037C0.5773 77.8513 0.821574 77.9212 1.06664 77.9Z" fill="white"/>
<path d="M10.5332 62.8C10.8635 62.8001 11.1807 62.6712 11.4173 62.4408C11.6539 62.2104 11.7912 61.8968 11.7999 61.5666C11.7999 58.8666 11.7999 49.9333 12.1666 41.1333C12.3332 34.9333 12.6666 28.8 13.1999 25C13.3901 24.1989 13.6238 23.4089 13.8999 22.6333C17.7609 22.4861 21.6275 22.6309 25.4666 23.0666C25.7666 25.5666 26.1666 32.1 26.5999 38.8C27.0332 45.5 27.4999 52.7666 27.4999 56.1V61.5333C27.5002 62.7285 27.3998 63.9216 27.1999 65.1C27.2142 65.3442 27.2142 65.5891 27.1999 65.8333C25.9962 66.4161 24.6702 66.7019 23.3332 66.6666C19.3666 66.8333 14.3999 66.0666 11.9666 66.0333C11.6748 66.0333 11.3951 66.1492 11.1888 66.3555C10.9825 66.5618 10.8666 66.8416 10.8666 67.1333C10.8666 67.425 10.9825 67.7048 11.1888 67.9111C11.3951 68.1174 11.6748 68.2333 11.9666 68.2333C14.3999 68.2333 19.4332 69.3333 23.4332 69.3333C25.3647 69.4644 27.294 69.0485 28.9999 68.1333C29.7908 67.3498 30.2755 66.3094 30.3666 65.2C30.7696 62.2166 30.9812 59.2104 30.9999 56.2C30.9999 52.2666 30.9999 43.1 30.5666 35.1333C30.4459 30.266 30.0116 25.4115 29.2666 20.6C29.1265 20.244 28.896 19.9308 28.5979 19.6911C28.2998 19.4514 27.9443 19.2936 27.5666 19.2333C26.5678 19.0192 25.5534 18.8854 24.5332 18.8333C20.2778 18.4937 15.9985 18.6054 11.7666 19.1666C11.3691 19.3002 11.0054 19.5184 10.7004 19.8061C10.3954 20.0938 10.1564 20.4443 9.99991 20.8333C9.35388 23.4183 9.00716 26.0691 8.96658 28.7333C8.49991 39.4 9.16658 57.4666 9.16658 61.5333C9.16603 61.7084 9.2018 61.8817 9.27161 62.0423C9.34143 62.2029 9.44378 62.3472 9.5722 62.4663C9.70063 62.5853 9.85234 62.6764 10.0178 62.7338C10.1832 62.7913 10.3587 62.8138 10.5332 62.8Z" fill="#00E1FF"/>
<path d="M45.2666 64.3333C45.4316 64.325 45.5933 64.2835 45.742 64.2114C45.8907 64.1393 46.0234 64.0381 46.1323 63.9137C46.2411 63.7894 46.3238 63.6444 46.3755 63.4874C46.4272 63.3304 46.4468 63.1647 46.4332 63C46.0666 55.4 45.7999 44.1667 45.7999 33.5667C45.7999 22.4667 45.9999 12.0667 46.5666 7.23332C46.5666 6.73332 46.5666 6.23332 46.7999 5.86665H48.0332C51.4477 5.7014 54.87 5.81288 58.2665 6.19999C58.4999 8.16666 58.8332 12.4667 59.2666 17.6C60.0999 27.9 61.1999 41.5333 61.4666 47.8C61.4666 49.4 62.0665 55.3333 62.1332 60.4667C62.2049 62.3698 62.1269 64.2757 61.8999 66.1667C61.8043 66.6509 61.6819 67.1294 61.5332 67.6C60.2449 68.1486 58.8661 68.4538 57.4665 68.5C53.55 68.8281 49.6077 68.6601 45.7332 68C45.4638 68.1108 45.2493 68.3239 45.1368 68.5926C45.0244 68.8613 45.0231 69.1637 45.1332 69.4333C45.5123 69.9384 46.0752 70.2738 46.6999 70.3667C49.1955 70.834 51.7276 71.0794 54.2666 71.1C57.244 71.34 60.2376 70.9188 63.0332 69.8667C64.2756 68.4867 64.9538 66.6901 64.9332 64.8333C65.24 59.1152 65.24 53.3848 64.9332 47.6667C64.9332 42.2333 64.3666 31.2 63.7332 21.6333C63.1666 12.6667 62.3999 4.96665 62.0999 3.93332C61.9946 3.55995 61.7953 3.21983 61.521 2.94553C61.2467 2.67122 60.9066 2.4719 60.5332 2.36665C59.4949 2.1049 58.435 1.93755 57.3665 1.86665C52.9928 1.42062 48.5769 1.63411 44.2665 2.49999C43.8703 2.77936 43.5397 3.14182 43.2979 3.56208C43.0561 3.98235 42.9089 4.45031 42.8665 4.93332C42.3984 8.56927 42.1979 12.2347 42.2666 15.9C42.2666 29.2333 42.9999 50.9667 43.9332 63.2333C43.982 63.5482 44.1448 63.8342 44.3906 64.037C44.6364 64.2398 44.9481 64.3453 45.2666 64.3333Z" fill="#00E1FF"/>
</g>
<defs>
<clipPath id="clip0_15_66">
<rect width="80" height="80" fill="white"/>
</clipPath>
</defs>
</svg>
