<svg width="80" height="80" viewBox="0 0 80 80" fill="none" xmlns="http://www.w3.org/2000/svg">
<g clip-path="url(#clip0_4_207)">
<path fill-rule="evenodd" clip-rule="evenodd" d="M79.6996 8.59996C79.52 8.06081 79.1823 7.58815 78.7305 7.24337C78.2788 6.8986 77.7338 6.69765 77.1663 6.66663C76.028 6.74792 74.9598 7.24644 74.1663 8.06663C70.0756 12.2074 66.3194 16.6658 62.933 21.4C54.5996 32.4666 44.533 47.2 40.033 54L38.3996 56.5C33.855 54.8502 29.1347 53.7317 24.333 53.1666C22.1177 52.7943 19.8501 52.8737 17.6663 53.4C17.3729 53.5173 17.1063 53.6931 16.8829 53.9165C16.6594 54.14 16.4837 54.4065 16.3663 54.7C16.2569 55.3572 16.2959 56.0306 16.4805 56.6708C16.665 57.311 16.9905 57.9018 17.433 58.4C19.7162 61.1983 22.3233 63.7159 25.1996 65.9C31.533 71 39.533 75.9 42.3996 76.2666C42.5486 76.2852 42.6998 76.274 42.8445 76.2336C42.9891 76.1933 43.1243 76.1246 43.2421 76.0315C43.36 75.9385 43.4582 75.823 43.531 75.6917C43.6038 75.5603 43.6498 75.4159 43.6663 75.2666C43.6944 74.9622 43.6018 74.6589 43.4086 74.4221C43.2153 74.1852 42.9368 74.0336 42.633 74C37.7384 72.1069 33.2227 69.3523 29.2996 65.8666C25.8746 63.3222 22.7541 60.3918 19.9996 57.1333C19.7432 56.7934 19.5094 56.4371 19.2996 56.0666C19.5578 55.976 19.8268 55.92 20.0996 55.9C23.4806 56.0272 26.8359 56.5417 30.0996 57.4333C32.8711 58.0647 35.5732 58.9691 38.1663 60.1333C38.4485 60.3022 38.776 60.38 39.104 60.3562C39.4321 60.3323 39.7448 60.2079 39.9996 60C40.2861 59.8323 40.5088 59.5744 40.633 59.2666V59.1C40.9996 58.5333 41.733 57.4 42.833 55.7666C47.3996 49.1 57.5663 34.5666 65.8997 23.6C69.633 18.6666 72.9663 14.4333 75.2996 12C75.6005 11.6853 75.9359 11.4058 76.2996 11.1666C76.133 12.1 75.733 13.3333 75.433 14.5C72.5881 23.4621 68.9978 32.1703 64.6996 40.5333C59.638 51.2172 53.8118 61.5217 47.2663 71.3666C47.1875 71.4717 47.1302 71.5912 47.0976 71.7184C47.065 71.8457 47.0578 71.9781 47.0764 72.1081C47.0949 72.2381 47.1389 72.3631 47.2058 72.4761C47.2727 72.5891 47.3613 72.6878 47.4663 72.7666C47.6838 72.9276 47.9558 72.9968 48.2238 72.9594C48.4919 72.9221 48.7345 72.781 48.8996 72.5666C59.8183 56.8205 69.1209 40.0132 76.6663 22.4C78.1174 19.1898 79.2344 15.8388 79.9996 12.4C80.2332 11.1288 80.1298 9.8187 79.6996 8.59996Z" fill="white"/>
<path fill-rule="evenodd" clip-rule="evenodd" d="M30.3673 46.9C34.5673 41.1334 40.3673 33.5667 45.8006 26.5667L52.4673 17.9C55.8006 13.8 58.334 10.3334 60.2006 8.33338C60.534 8.00005 60.834 7.60005 61.1006 7.30005C61.1321 7.46522 61.1321 7.63487 61.1006 7.80005C61.017 9.24527 60.771 10.6765 60.3673 12.0667C60.0006 14.1334 59.1673 16.6667 58.1673 19.3334C58.0862 19.4596 58.0345 19.6025 58.0161 19.7514C57.9978 19.9004 58.0131 20.0515 58.0611 20.1937C58.1091 20.3359 58.1884 20.4654 58.2933 20.5727C58.3982 20.6801 58.5258 20.7624 58.6669 20.8137C58.8079 20.865 58.9586 20.8839 59.1079 20.869C59.2573 20.8541 59.4013 20.8058 59.5294 20.7276C59.6575 20.6495 59.7664 20.5435 59.8479 20.4175C59.9295 20.2916 59.9817 20.1489 60.0006 20C61.8737 16.1914 63.2516 12.1586 64.1006 8.00005C64.3673 5.26672 63.2006 3.96672 61.6673 3.80005C60.7238 3.818 59.8208 4.18634 59.134 4.83338C55.5585 8.0721 52.2993 11.6438 49.4006 15.5001C47.3006 18.1667 45.034 21.2001 42.734 24.3334C37.5006 31.6001 32.3006 39.6001 28.4006 45.6001C28.2838 45.8506 28.2597 46.1345 28.3326 46.4012C28.4056 46.6679 28.5709 46.9 28.7991 47.0561C29.0273 47.2122 29.3035 47.2822 29.5785 47.2536C29.8535 47.2251 30.1094 47.0998 30.3006 46.9H30.3673Z" fill="#00E1FF"/>
<path fill-rule="evenodd" clip-rule="evenodd" d="M22.2003 73.3334C20.3337 72.9667 16.867 69 13.3337 64.4667C11.9003 62.6667 10.5003 60.7 9.16698 58.8667C7.83365 57.0334 6.36698 54.8334 5.33365 53.1C4.62279 52.0468 4.00916 50.9311 3.50032 49.7667C3.50032 49.7667 3.50032 49.7667 3.50032 49.6C6.52154 49.5479 9.5333 49.9524 12.4337 50.8C12.5584 50.846 12.691 50.8669 12.8238 50.8617C12.9567 50.8564 13.0872 50.825 13.2079 50.7693C13.3286 50.7136 13.4372 50.6346 13.5274 50.5369C13.6176 50.4393 13.6877 50.3248 13.7337 50.2C13.7796 50.0753 13.8006 49.9427 13.7953 49.8098C13.79 49.677 13.7586 49.5465 13.7029 49.4258C13.6472 49.3051 13.5682 49.1965 13.4706 49.1063C13.3729 49.0161 13.2584 48.946 13.1337 48.9C10.1798 47.7137 7.06978 46.9615 3.90032 46.6667C2.92925 46.521 1.93679 46.6479 1.03365 47.0334C0.678801 47.2262 0.397575 47.5309 0.233651 47.9C0.0175384 48.8021 -0.0171349 49.7381 0.131647 50.6537C0.280428 51.5693 0.609697 52.4461 1.10032 53.2334C2.53268 56.1703 4.26406 58.9516 6.26698 61.5334C11.5337 68.5 18.867 75.3667 21.8003 75.8C21.947 75.8291 22.098 75.8288 22.2446 75.7992C22.3911 75.7696 22.5304 75.7113 22.6544 75.6276C22.7783 75.544 22.8844 75.4366 22.9667 75.3117C23.049 75.1868 23.1057 75.0469 23.1336 74.9C23.2023 74.7365 23.2317 74.5591 23.2193 74.3821C23.2069 74.2051 23.1532 74.0335 23.0624 73.8811C22.9716 73.7287 22.8463 73.5998 22.6966 73.5046C22.5468 73.4095 22.3769 73.3508 22.2003 73.3334Z" fill="#00E1FF"/>
</g>
<defs>
<clipPath id="clip0_4_207">
<rect width="80" height="80" fill="white"/>
</clipPath>
</defs>
</svg>
