<svg width="80" height="80" viewBox="0 0 80 80" fill="none" xmlns="http://www.w3.org/2000/svg">
<g clip-path="url(#clip0_5_81)">
<path fill-rule="evenodd" clip-rule="evenodd" d="M74.7001 48.8001C72.7232 46.465 70.228 44.6243 67.4135 43.4247C64.599 42.2251 61.5431 41.6999 58.4896 41.891C55.4361 42.082 52.4695 42.984 49.8265 44.5251C47.1834 46.0661 44.9371 48.2035 43.2667 50.7667C37.7334 58.9667 40.6001 71.0001 46.1334 74.5667C46.3573 74.6713 46.6113 74.6922 46.8492 74.6256C47.0872 74.559 47.2934 74.4093 47.4305 74.2037C47.5676 73.9981 47.6264 73.7501 47.5964 73.5049C47.5663 73.2596 47.4494 73.0332 47.2667 72.8667C42.8667 69.7667 40.9001 59.2334 45.8667 52.6001C47.3287 50.605 49.2164 48.9603 51.3929 47.7854C53.5693 46.6104 55.98 45.9346 58.4501 45.8069C60.9202 45.6793 63.3877 46.103 65.6737 47.0473C67.9597 47.9917 70.0069 49.433 71.6667 51.2667C79.8334 60.9334 75.0001 75.6001 60.6334 77.3001C57.9958 77.6429 55.3155 77.4271 52.7667 76.6667C52.6201 76.6208 52.4658 76.6041 52.3128 76.6178C52.1597 76.6314 52.0108 76.6751 51.8746 76.7463C51.7384 76.8175 51.6176 76.9148 51.519 77.0327C51.4204 77.1506 51.346 77.2867 51.3001 77.4334C51.2541 77.58 51.2375 77.7343 51.2511 77.8874C51.2648 78.0404 51.3085 78.1893 51.3797 78.3255C51.4508 78.4617 51.5482 78.5825 51.6661 78.6811C51.7839 78.7797 51.9201 78.8541 52.0667 78.9001C54.9133 79.8265 57.9228 80.1445 60.9001 79.8334C64.4549 79.7444 67.9116 78.6491 70.869 76.6746C73.8263 74.7001 76.163 71.9273 77.6079 68.6781C79.0528 65.4289 79.5465 61.8366 79.0318 58.3181C78.5171 54.7996 77.0151 51.4992 74.7001 48.8001Z" fill="white"/>
<path fill-rule="evenodd" clip-rule="evenodd" d="M57.6656 60.2C55.2101 62.6525 53.1721 65.4899 51.6323 68.6C51.3653 69.1474 51.2795 69.7655 51.3874 70.3648C51.4953 70.9641 51.7912 71.5135 52.2323 71.9334C53.9656 73.6 52.5656 70.4 57.3989 65.8667C58.4989 64.6667 59.7323 63.5334 60.9989 62.3667C62.7323 63.8334 66.3989 66.8334 66.5656 69.2667C66.5656 69.5761 66.6885 69.8729 66.9073 70.0917C67.1261 70.3105 67.4229 70.4334 67.7323 70.4334C68.0417 70.4334 68.3384 70.3105 68.5572 70.0917C68.776 69.8729 68.8989 69.5761 68.8989 69.2667C69.1656 65.9334 66.099 62.1334 63.7323 59.7334C65.6427 57.9032 67.7436 56.2829 69.9989 54.9C70.1368 54.8322 70.26 54.7379 70.3614 54.6224C70.4629 54.5069 70.5406 54.3726 70.5901 54.2272C70.6396 54.0817 70.66 53.9279 70.6501 53.7745C70.6402 53.6212 70.6001 53.4713 70.5323 53.3334C70.4644 53.1955 70.3701 53.0723 70.2546 52.9709C70.1392 52.8695 70.0049 52.7918 69.8594 52.7422C69.7139 52.6927 69.5601 52.6723 69.4068 52.6823C69.2534 52.6922 69.1035 52.7322 68.9656 52.8C66.1193 53.9695 63.4315 55.4926 60.9656 57.3334C59.199 55.9 53.6323 51.8334 52.7323 51.1C50.1989 48.6667 49.7989 51.3334 50.8989 52.3C51.2323 52.7667 54.2323 56.1 55.1323 57.1334C58.499 60.4667 58.2323 59.6334 57.6656 60.2Z" fill="white"/>
<path fill-rule="evenodd" clip-rule="evenodd" d="M36.1996 47.7C29.4455 47.1614 22.6616 47.1057 15.8996 47.5334C10.9996 47.8667 6.99956 48.3334 4.59956 48.4C4.32815 48.4464 4.08188 48.5873 3.90433 48.7977C3.72678 49.0082 3.62939 49.2747 3.62939 49.55C3.62939 49.8254 3.72678 50.0918 3.90433 50.3023C4.08188 50.5128 4.32815 50.6536 4.59956 50.7C15.1685 51.5886 25.8044 51.2642 36.2996 49.7334C36.5368 49.6798 36.7475 49.5442 36.8946 49.3506C37.0418 49.1569 37.1159 48.9176 37.1039 48.6747C37.092 48.4318 36.9947 48.2009 36.8293 48.0226C36.6639 47.8443 36.4409 47.7301 36.1996 47.7Z" fill="white"/>
<path fill-rule="evenodd" clip-rule="evenodd" d="M21.867 26.0334C15.4906 31.4284 9.69269 37.472 4.56697 44.0668C4.47066 44.1806 4.39772 44.3123 4.3523 44.4543C4.30688 44.5963 4.28988 44.7458 4.30226 44.8944C4.31464 45.043 4.35617 45.1876 4.42446 45.3202C4.49276 45.4527 4.58649 45.5705 4.7003 45.6668C4.93015 45.8613 5.22786 45.9565 5.52791 45.9315C5.82797 45.9065 6.10581 45.7633 6.3003 45.5334C10.5003 41.1334 16.6336 37.2001 24.3003 27.6001C25.7003 24.8668 25.0336 24.1668 21.867 26.0334Z" fill="#00E1FF"/>
<path fill-rule="evenodd" clip-rule="evenodd" d="M62.1665 2.66664C59.4665 -2.563e-05 11.3332 -2.13336 2.89984 3.89997C2.37206 4.33261 2.00756 4.93227 1.8665 5.59997C0.299837 11.3333 0.666504 41.7 1.43317 47.1333C1.44849 47.2646 1.48953 47.3916 1.55394 47.5071C1.61835 47.6226 1.70487 47.7242 1.80856 47.8062C1.91225 47.8883 2.03108 47.9491 2.15827 47.9852C2.28546 48.0213 2.41852 48.032 2.54984 48.0166C2.68116 48.0013 2.80818 47.9603 2.92364 47.8959C3.0391 47.8315 3.14075 47.7449 3.22277 47.6413C3.3048 47.5376 3.3656 47.4187 3.4017 47.2915C3.4378 47.1643 3.44849 47.0313 3.43317 46.9C3.05829 34.2163 3.52599 21.5217 4.83317 8.89997C9.29984 12.4666 28.1665 27.8666 33.9998 27.7333C40.6665 27.5666 60.6665 5.89997 60.6665 7.36664C61.5952 15.9589 61.7068 24.6199 60.9998 33.2333C60.9866 33.5427 61.0968 33.8447 61.3062 34.0729C61.5156 34.3011 61.8071 34.4367 62.1165 34.45C62.4259 34.4632 62.7279 34.353 62.9561 34.1436C63.1843 33.9342 63.3199 33.6427 63.3332 33.3333C63.8665 28.4 65.7665 6.23331 62.1665 2.66664ZM37.3665 22.1C33.8665 24.2666 35.8998 27.7 5.43317 6.66664C5.23317 3.79997 51.8332 2.79997 58.7665 4.99997C52.2209 11.3989 45.0519 17.1274 37.3665 22.1Z" fill="white"/>
<path fill-rule="evenodd" clip-rule="evenodd" d="M45.4671 25.8665C41.7005 23.9332 40.6671 24.6332 42.5671 28.2332C44.6947 30.7432 47.0369 33.063 49.5671 35.1665C49.766 35.3964 50.0481 35.5378 50.3513 35.5597C50.6545 35.5816 50.9539 35.4821 51.1838 35.2832C51.4136 35.0843 51.5551 34.8022 51.577 34.499C51.5988 34.1959 51.4994 33.8964 51.3005 33.6665C49.6429 30.8639 47.687 28.2487 45.4671 25.8665Z" fill="#00E1FF"/>
</g>
<defs>
<clipPath id="clip0_5_81">
<rect width="80" height="80" fill="white"/>
</clipPath>
</defs>
</svg>
