<svg width="80" height="80" viewBox="0 0 80 80" fill="none" xmlns="http://www.w3.org/2000/svg">
<g clip-path="url(#clip0_4_208)">
<path d="M79.4333 9.33333C79.401 7.6906 79.245 6.05264 78.9667 4.43333C78.8513 3.83972 78.5611 3.29415 78.1333 2.86667C77.6865 2.56913 77.1896 2.35459 76.6667 2.23333C74.3312 1.79892 71.9712 1.50948 69.6 1.36667C60.4 0.6 45.3 0 39.2333 0C37.4333 0 23.7667 0 13.6667 0.333333C10.6862 0.435636 7.71434 0.713898 4.76667 1.16667C3.74136 1.29525 2.75997 1.66041 1.9 2.23333C1.54034 2.58305 1.27637 3.01917 1.13333 3.5C0.727842 5.36362 0.493534 7.2604 0.433333 9.16667C0 16.9 0 30 0 32.9C0 35.8 0.433333 48.3 0.866667 55.8667C0.866667 58.3 1.13333 60.2 1.26667 61.1C1.29596 61.5586 1.45811 61.9987 1.73333 62.3667C2.68468 63.1421 3.84478 63.6178 5.06667 63.7333C7.44952 63.9735 9.85048 63.9735 12.2333 63.7333C14.8 63.5 17 63.3 18.9 63.3C24.0333 63.3 23.6 64.5333 23.7667 65.1667C24.1467 67.0028 24.1467 68.8972 23.7667 70.7333C23.2866 73.4182 22.1405 75.9396 20.4333 78.0667C20.3001 78.2654 20.2259 78.4978 20.2194 78.737C20.2128 78.9762 20.2741 79.2123 20.3961 79.4181C20.5182 79.6239 20.6961 79.7909 20.9091 79.8998C21.1222 80.0086 21.3617 80.0549 21.6 80.0333C22.904 80.0185 24.2018 79.8507 25.4667 79.5333C28.7963 78.918 31.8958 77.4085 34.4333 75.1667C35.6742 73.7792 36.7897 72.2844 37.7667 70.7C39.4333 68.0667 40.4333 65.6333 41.3667 64.3C41.6667 64.3 42.4667 64.0667 43.2667 64.0667C48.7667 64.0667 61.6667 64.6333 66.2667 65C68.6972 65.1654 71.1361 65.1654 73.5667 65C74.9749 64.9787 76.3401 64.5119 77.4667 63.6667C78.5332 61.3344 79.0792 58.7979 79.0667 56.2333C80 47.5667 80 32.8667 80 30C80 27.1333 79.8 15.8667 79.4333 9.33333ZM76.1 52.8667C76.0655 55.4091 75.8762 57.9472 75.5333 60.4667C75.5333 60.8667 75.3 61.3333 75.2667 61.5C75.0023 61.6135 74.7205 61.6811 74.4333 61.7C73.5168 61.8344 72.5928 61.9123 71.6667 61.9333H66.8C62.7667 61.7 52.4333 61.3333 46.1333 61.3667C44.5196 61.3321 42.9053 61.3989 41.3 61.5667C40.798 61.6005 40.3249 61.8134 39.9667 62.1667C38.9 63.4 37.8333 66.3 35.9 69.4333C35.0024 70.8357 33.9637 72.1425 32.8 73.3333C30.246 75.5866 27.0773 77.0259 23.7 77.4667C25.1276 74.9367 25.9917 72.1282 26.2333 69.2333C27 60.3667 21.7667 60.9 19.1333 60.8667C17.2 60.8667 14.9 60.8667 12.2333 61.2333C10.3472 61.3765 8.45284 61.3765 6.56667 61.2333C5.55043 61.265 4.54568 61.011 3.66667 60.5L3 32.9C3 30.5333 3 22.3667 3.36667 15.2333C3.36667 11.5333 3.73333 8.1 4.03333 5.96667C4.09456 5.48415 4.18359 5.00558 4.3 4.53333C4.73333 4.53333 5.43333 4.53333 6 4.36667C9.79707 3.95163 13.6136 3.74022 17.4333 3.73333C26.8333 3.53333 37.6333 3.73333 39.2 3.73333C43.7333 3.73333 53.4 4.13333 61.8 4.63333C66.6 4.93333 70.9667 5.26667 73.7333 5.6L75.3 5.86667C75.322 6.25524 75.322 6.64476 75.3 7.03333C75.8333 12.7 76.0667 26.2667 76.0333 29.9667C76.2 32.5 76.4333 44.1667 76.1333 52.8667H76.1Z" fill="white"/>
<path d="M52.4666 29.4333C51.9811 28.767 51.3404 28.2293 50.6 27.8667C51.1341 24.9129 51.1341 21.8872 50.6 18.9333C50.1333 16.6569 48.968 14.5828 47.2666 13C46.0361 12.0278 44.6079 11.3361 43.0821 10.9733C41.5564 10.6106 39.9698 10.5856 38.4333 10.9C35.4727 11.4541 32.7974 13.0216 30.8666 15.3333C29.6772 16.8973 28.8876 18.7282 28.5666 20.6667C28.1679 23.2626 28.1679 25.9041 28.5666 28.5L26.9666 29C26.824 29.0454 26.6917 29.1186 26.5775 29.2153C26.4633 29.3121 26.3694 29.4306 26.3012 29.5638C26.233 29.6971 26.1919 29.8425 26.1802 29.9918C26.1686 30.141 26.1866 30.2911 26.2333 30.4333C26.0741 30.5804 25.9785 30.7836 25.9666 31L25.3666 39.5C25.3666 40.9 25.0333 46.7667 25.0333 49.2333C24.9969 49.9815 25.1825 50.7237 25.5666 51.3667C26.2157 51.8754 26.9848 52.2083 27.8 52.3333C29.0591 52.5034 30.33 52.5702 31.6 52.5333L45.1333 53.0333C46.6269 53.0655 48.1207 52.9763 49.6 52.7667C50.4055 52.6624 51.1368 52.2428 51.6333 51.6C52.4219 50.3965 52.9236 49.028 53.1 47.6C53.3321 45.8547 53.4102 44.0923 53.3333 42.3333C53.3333 40.2667 53.3333 35.6667 52.9666 32.6C52.9761 31.5241 52.8072 30.454 52.4666 29.4333ZM31.0333 22.4333C31.3332 20.6389 32.13 18.9645 33.3333 17.6C34.8734 16.029 36.8885 15.0097 39.0666 14.7C40.0572 14.455 41.0881 14.4204 42.0928 14.5983C43.0976 14.7763 44.0539 15.163 44.9 15.7333C46.2199 16.7426 47.188 18.1422 47.6666 19.7333C48.3106 22.1324 48.5138 24.6284 48.2666 27.1C47.0666 26.8667 45.8 26.8 44.9333 26.7C42.7147 26.5201 40.4852 26.5201 38.2666 26.7C36.0178 26.8217 33.7855 27.1566 31.6 27.7L30.7 27.9667C30.6019 26.1156 30.7138 24.2593 31.0333 22.4333ZM49.3333 47.1C49.2363 47.8656 49.0109 48.6093 48.6666 49.3C48.6666 49.3 48.9 48.9667 48.9666 49.1C49.2666 49.8333 46.6666 49.3 45.0666 49.3667H31.7333H29.2666H28C28 46.9667 27.7666 41.2333 27.8 39.8333L27.9666 31.3333V31.0667L31.9666 30C34.0302 29.5829 36.1282 29.3597 38.2333 29.3333C40.3506 29.2991 42.4675 29.4216 44.5666 29.7C45.8365 29.8318 47.0953 30.0546 48.3333 30.3667C48.8501 30.5048 49.307 30.8094 49.6333 31.2333V42.3333C49.6633 43.9278 49.563 45.5219 49.3333 47.1Z" fill="#00E1FF"/>
<path d="M39.9999 36.6666C39.2703 36.4877 38.505 36.5178 37.7916 36.7537C37.0783 36.9895 36.4458 37.4214 35.9666 38C34.2999 40.4666 35.5999 44.2667 38.5999 44.2C39.4813 44.1564 40.3296 43.8508 41.0362 43.3223C41.7429 42.7938 42.2757 42.0664 42.5666 41.2333C42.7031 40.7649 42.7448 40.274 42.6892 39.7894C42.6336 39.3047 42.4819 38.8359 42.2428 38.4107C42.0038 37.9854 41.6823 37.612 41.2972 37.3126C40.912 37.0131 40.471 36.7935 39.9999 36.6666Z" fill="#00E1FF"/>
</g>
<defs>
<clipPath id="clip0_4_208">
<rect width="80" height="80" fill="white"/>
</clipPath>
</defs>
</svg>
