<svg width="80" height="80" viewBox="0 0 80 80" fill="none" xmlns="http://www.w3.org/2000/svg">
<g clip-path="url(#clip0_4_206)">
<path d="M80 32.0001C79.7 25.3334 74.6333 15.9334 66.0333 9.06674C58.8468 3.2621 49.9044 0.0658588 40.6666 6.86664e-05C30.8062 -0.196446 21.2023 3.15071 13.6 9.4334C6.0032 15.8009 1.21432 24.8997 0.266636 34.7667C-0.333364 44.9667 1.26664 50.9334 4.8333 55.0334C8.39997 59.1334 14.6333 61.7001 23.1 64.5334C23.4 64.5334 23.5 65.0334 23.6666 65.5334C24.0461 67.2347 24.0461 68.9987 23.6666 70.7001C23.2833 73.2318 22.2496 75.6207 20.6666 77.6334C20.5019 77.8499 20.4022 78.1089 20.3792 78.38C20.3561 78.6511 20.4107 78.9231 20.5366 79.1643C20.6624 79.4055 20.8543 79.6059 21.0898 79.7421C21.3254 79.8783 21.5948 79.9447 21.8666 79.9334C22.8473 79.9557 23.8282 79.9 24.8 79.7667C28.9873 79.345 33.0347 78.0262 36.6666 75.9001C37.9085 74.9913 39.0288 73.9271 40 72.7334C42.3 69.9334 44.2666 66.4001 45.4 64.9334C46.7666 64.9334 50.0666 64.9334 53.5333 64.5001C55.5089 64.2971 57.4687 63.9631 59.4 63.5001C66.0885 61.6982 71.8648 57.467 75.6 51.6334C79.0539 45.6984 80.5906 38.8415 80 32.0001ZM73.3333 50.2667C70.0564 55.6413 64.8819 59.5905 58.8333 61.3334C57.0156 61.8082 55.1665 62.1535 53.3 62.3667C48.9 62.9001 45.3 62.1334 44.2 62.9334C43.1 63.7334 41.1333 67.3667 39 70.1334C37.98 71.5506 36.7556 72.8087 35.3666 73.8667C32.0446 75.761 28.3456 76.8992 24.5333 77.2001C25.7946 74.7709 26.522 72.1001 26.6666 69.3667C26.8656 67.5774 26.6606 65.7663 26.0666 64.0667C25.9034 63.5454 25.6278 63.0663 25.2592 62.6631C24.8906 62.2599 24.438 61.9426 23.9333 61.7334C16.1666 58.9001 10.6 56.8667 7.26664 52.8667C3.9333 48.8667 3.09997 43.9334 3.9333 35.0001C4.91798 26.1304 9.3471 18.0024 16.2666 12.3667C23.2163 6.68632 31.9592 3.66176 40.9333 3.8334C49.3239 3.82717 57.4724 6.6451 64.0666 11.8334C71.9 17.9001 76.7666 26.1667 77.1666 32.1667C77.7311 38.4723 76.3217 44.7974 73.1333 50.2667H73.3333Z" fill="white"/>
<path d="M25.634 23.3335C26.7506 23.2476 27.8737 23.3262 28.9673 23.5668C30.1981 23.7469 31.3632 24.2356 32.3541 24.9875C33.345 25.7394 34.1293 26.73 34.634 27.8668C34.7191 28.1535 34.9139 28.3948 35.1762 28.5384C35.4384 28.682 35.7467 28.7162 36.034 28.6335C36.2987 28.5158 36.5101 28.3039 36.6271 28.039C36.7442 27.7741 36.7585 27.4751 36.6673 27.2002C36.2669 25.4924 35.4153 23.9234 34.2017 22.6569C32.988 21.3904 31.4566 20.4729 29.7673 20.0002C26.9623 19.0757 23.9164 19.2061 21.2007 20.3668C19.6064 21.0177 18.1974 22.0518 17.0984 23.3775C15.9995 24.7032 15.2446 26.2796 14.9007 27.9668C14.8596 28.0937 14.8443 28.2276 14.8557 28.3605C14.8671 28.4934 14.905 28.6226 14.9671 28.7406C15.0293 28.8587 15.1144 28.9631 15.2174 29.0477C15.3205 29.1324 15.4395 29.1955 15.5673 29.2335C15.7998 29.2695 16.0376 29.2224 16.2388 29.1005C16.4399 28.9786 16.5917 28.7896 16.6673 28.5668C17.193 27.4046 17.9765 26.3773 18.9583 25.563C19.9402 24.7486 21.0946 24.1686 22.334 23.8668C23.41 23.5636 24.5173 23.3847 25.634 23.3335Z" fill="#00E1FF"/>
<path d="M58.9342 19.6666C57.5755 19.1384 56.1245 18.889 54.6675 18.9332C53.202 18.9376 51.7519 19.2322 50.4008 19.7999C48.8814 20.4695 47.5218 21.4549 46.4126 22.6906C45.3034 23.9263 44.4699 25.3839 43.9675 26.9666C43.8745 27.2153 43.8776 27.4898 43.9762 27.7364C44.0748 27.983 44.2619 28.1839 44.5008 28.2999C44.7441 28.3998 45.017 28.3999 45.2603 28.3C45.5036 28.2002 45.6978 28.0085 45.8008 27.7666C47.096 25.5736 49.2043 23.9805 51.6675 23.3332C52.6675 23.0508 53.6963 22.8831 54.7342 22.8332C56.4867 22.6563 58.2513 23.0218 59.7893 23.8802C61.3274 24.7387 62.5648 26.0487 63.3342 27.6332C63.446 27.9116 63.6608 28.1362 63.934 28.2604C64.2071 28.3845 64.5176 28.3987 64.8008 28.2999C64.9414 28.248 65.0703 28.1688 65.18 28.0668C65.2897 27.9648 65.3782 27.842 65.4402 27.7056C65.5022 27.5692 65.5365 27.4219 65.5412 27.2722C65.5459 27.1224 65.5208 26.9732 65.4675 26.8332C65.0174 25.2097 64.1914 23.715 63.0564 22.47C61.9214 21.2249 60.5092 20.2646 58.9342 19.6666Z" fill="#00E1FF"/>
<path d="M58.1328 39.5001C57.9906 39.4534 57.8405 39.4354 57.6913 39.447C57.542 39.4587 57.3966 39.4998 57.2633 39.568C57.1301 39.6362 57.0116 39.7301 56.9148 39.8443C56.8181 39.9585 56.7449 40.0907 56.6995 40.2334C55.8658 41.9335 54.633 43.4066 53.1064 44.5269C51.5798 45.6472 49.8048 46.3814 47.9328 46.6667C45.3538 47.2576 42.7114 47.5263 40.0662 47.4667C38.0859 47.4371 36.1119 47.2364 34.1662 46.8667C29.1328 45.8667 24.7995 43.7667 23.6662 39.8001C23.603 39.5445 23.4415 39.3241 23.2169 39.1868C22.9922 39.0495 22.7225 39.0064 22.4662 39.0667C22.3379 39.0904 22.2158 39.1398 22.1071 39.2119C21.9984 39.2841 21.9055 39.3775 21.8339 39.4865C21.7622 39.5955 21.7134 39.7178 21.6903 39.8462C21.6672 39.9746 21.6704 40.1063 21.6995 40.2334C22.5328 45.2001 27.2995 48.8001 33.3662 50.4001C35.5427 50.9741 37.782 51.2764 40.0328 51.3001C42.2758 51.3107 44.5125 51.0647 46.6995 50.5667C52.6662 49.1334 57.5662 45.8334 58.8662 40.9001C58.9503 40.6172 58.9207 40.3126 58.7838 40.0512C58.6468 39.7897 58.4133 39.592 58.1328 39.5001Z" fill="#00E1FF"/>
</g>
<defs>
<clipPath id="clip0_4_206">
<rect width="80" height="80" fill="white"/>
</clipPath>
</defs>
</svg>
