<svg width="80" height="80" viewBox="0 0 80 80" fill="none" xmlns="http://www.w3.org/2000/svg">
<g clip-path="url(#clip0_4_204)">
<path fill-rule="evenodd" clip-rule="evenodd" d="M61.3334 61.8666C61.1754 61.8832 61.0223 61.931 60.8829 62.0072C60.7435 62.0833 60.6207 62.1864 60.5215 62.3105C60.4222 62.4345 60.3486 62.577 60.3049 62.7297C60.2612 62.8824 60.2482 63.0422 60.2667 63.2C60.724 65.5823 60.4118 68.0483 59.3751 70.2415C58.3385 72.4346 56.6312 74.2412 54.5 75.4C52.3246 76.3022 49.93 76.5367 47.6209 76.0737C45.3118 75.6107 43.1927 74.4711 41.5334 72.8C39.5786 71.1448 38.2938 68.8341 37.9196 66.3002C37.5453 63.7663 38.1072 61.1829 39.5 59.0333C40.0659 57.851 40.8688 56.7975 41.8587 55.9384C42.8487 55.0792 44.0047 54.4327 45.2549 54.0388C46.5052 53.645 47.823 53.5123 49.1267 53.649C50.4303 53.7856 51.692 54.1888 52.8334 54.8333C53.0823 54.9682 53.3737 55.002 53.6469 54.9274C53.9201 54.8529 54.154 54.676 54.3 54.4333C54.3718 54.3156 54.4193 54.1847 54.4397 54.0483C54.4601 53.912 54.453 53.7729 54.4188 53.6394C54.3846 53.5058 54.3241 53.3804 54.2407 53.2706C54.1573 53.1608 54.0528 53.0688 53.9334 53C52.5379 52.0881 50.9699 51.4728 49.3267 51.1921C47.6835 50.9115 46.0001 50.9715 44.3811 51.3684C42.762 51.7654 41.2418 52.4908 39.9148 53.4997C38.5877 54.5086 37.4822 55.7794 36.6667 57.2333C34.7113 60.0937 33.8691 63.5703 34.2989 67.0085C34.7287 70.4466 36.4007 73.609 39 75.9C41.2846 77.9825 44.1385 79.336 47.1966 79.7873C50.2548 80.2386 53.378 79.7671 56.1667 78.4333C58.7996 76.9043 60.8698 74.5677 62.0706 71.7699C63.2714 68.972 63.5389 65.8618 62.8334 62.9C62.8151 62.7279 62.7598 62.5619 62.6713 62.4132C62.5829 62.2645 62.4633 62.1367 62.3208 62.0386C62.1784 61.9404 62.0164 61.8742 61.8459 61.8446C61.6755 61.8149 61.5006 61.8224 61.3334 61.8666Z" fill="white"/>
<path fill-rule="evenodd" clip-rule="evenodd" d="M67.9999 49.0334C67.8884 48.9215 67.756 48.8327 67.6101 48.7722C67.4642 48.7116 67.3079 48.6804 67.1499 48.6804C66.992 48.6804 66.8356 48.7116 66.6897 48.7722C66.5439 48.8327 66.4114 48.9215 66.2999 49.0334C62.9644 51.7194 59.854 54.6737 56.9999 57.8667C54.7666 60.3 52.7333 62.7 51.1999 64.5334L49.6999 66.4C47.6013 64.547 45.6197 62.5654 43.7666 60.4667C43.5669 60.2692 43.2974 60.1585 43.0166 60.1585C42.7358 60.1585 42.4663 60.2692 42.2666 60.4667C42.1647 60.5633 42.0836 60.6796 42.0281 60.8085C41.9727 60.9374 41.9441 61.0763 41.9441 61.2167C41.9441 61.3571 41.9727 61.4959 42.0281 61.6249C42.0836 61.7538 42.1647 61.8701 42.2666 61.9667C44.0421 64.6428 46.0142 67.1832 48.1666 69.5667C48.5196 69.9355 48.9733 70.1922 49.4713 70.3048C49.9692 70.4175 50.4892 70.381 50.9666 70.2C52.5623 69.1291 53.9892 67.8258 55.1999 66.3334C56.3666 65.0334 57.7333 63.4 59.0999 61.7C61.8668 57.9718 64.838 54.3997 67.9999 51C68.1518 50.885 68.275 50.7364 68.3599 50.5658C68.4447 50.3952 68.4888 50.2072 68.4888 50.0167C68.4888 49.8262 68.4447 49.6382 68.3599 49.4676C68.275 49.297 68.1518 49.1484 67.9999 49.0334Z" fill="white"/>
<path fill-rule="evenodd" clip-rule="evenodd" d="M14.9667 20.5667C14.9667 20.2749 14.8508 19.9951 14.6445 19.7889C14.4382 19.5826 14.1584 19.4667 13.8667 19.4667C13.5838 19.4667 13.3125 19.5791 13.1124 19.7791C12.9124 19.9791 12.8 20.2504 12.8 20.5333C12.5 22.4333 12.0667 24.2667 11.8333 26.2C11.7828 27.0103 11.7828 27.823 11.8333 28.6333V31.0667C12.0333 33.0333 12.3667 34.9 12.7 36.8C12.7085 36.9577 12.7481 37.1121 12.8164 37.2545C12.8847 37.3968 12.9804 37.5243 13.0981 37.6296C13.2158 37.7349 13.3531 37.8159 13.5021 37.868C13.6512 37.9201 13.809 37.9423 13.9667 37.9333C14.1258 37.9294 14.2825 37.8929 14.4271 37.8261C14.5716 37.7593 14.7009 37.6636 14.8071 37.545C14.9133 37.4263 14.994 37.2872 15.0444 37.1361C15.0948 36.9851 15.1137 36.8253 15.1 36.6667C15.1 34.8 15.5 32.9667 15.6667 31.0667V28.6667V26.2333C15.6 24.3 15.2 22.4667 14.9667 20.5667Z" fill="#00E1FF"/>
<path fill-rule="evenodd" clip-rule="evenodd" d="M24.1666 25.4667C23.9666 21.4667 23.6666 17.5667 23.6999 13.6667C23.7185 13.3802 23.6243 13.0978 23.4374 12.8798C23.2506 12.6618 22.9859 12.5255 22.6999 12.5C22.5598 12.491 22.4193 12.5097 22.2864 12.5551C22.1535 12.6005 22.0309 12.6717 21.9256 12.7646C21.8203 12.8576 21.7344 12.9703 21.6728 13.0965C21.6112 13.2227 21.5751 13.3598 21.5666 13.5C20.9123 17.4618 20.4783 21.4568 20.2666 25.4667V30.6C20.2666 32.4 20.2666 33.9333 20.5666 35.7333C20.9333 39.7667 21.4666 43.7 21.8999 47.6C21.9255 47.9213 22.0759 48.2199 22.3189 48.4317C22.5619 48.6435 22.8781 48.7518 23.1999 48.7333C23.3576 48.7248 23.512 48.6853 23.6544 48.617C23.7968 48.5487 23.9242 48.4529 24.0295 48.3352C24.1348 48.2176 24.2158 48.0803 24.2679 47.9312C24.3201 47.7822 24.3423 47.6243 24.3333 47.4667V35.5667V30.5C24.3333 28.7667 24.2333 27.1333 24.1666 25.4667Z" fill="#00E1FF"/>
<path fill-rule="evenodd" clip-rule="evenodd" d="M31.9332 1.20355e-05C31.7931 -0.0090213 31.6526 0.00970524 31.5197 0.0551172C31.3868 0.100529 31.2642 0.171733 31.1589 0.264642C31.0536 0.357552 30.9677 0.470339 30.9061 0.596533C30.8445 0.722726 30.8084 0.859841 30.7999 1.00001C29.9999 7.33335 29.4332 13.7333 29.0332 20.2C28.8666 22.9333 28.7999 25.7 28.7332 28.4333C28.6666 31.1667 28.7332 33.9667 28.7332 36.7C28.7332 43.1667 29.2332 49.6 29.6332 55.9667C29.6376 56.1243 29.6729 56.2795 29.7372 56.4234C29.8016 56.5674 29.8936 56.6972 30.0082 56.8056C30.1227 56.9139 30.2575 56.9986 30.4048 57.0549C30.552 57.1111 30.709 57.1378 30.8666 57.1333C31.182 57.1163 31.4788 56.9788 31.6959 56.7494C31.913 56.5199 32.0337 56.2159 32.0332 55.9C32.0332 49.2333 32.3999 42.8 32.5999 36.2C32.5999 31.8 32.8666 27.4333 32.8999 23.0667V1.13335C32.9185 0.855667 32.8278 0.58173 32.6472 0.369992C32.4666 0.158254 32.2104 0.0254828 31.9332 1.20355e-05Z" fill="#00E1FF"/>
<path fill-rule="evenodd" clip-rule="evenodd" d="M37.8 34C37.7956 34.1576 37.8222 34.3146 37.8785 34.4619C37.9347 34.6091 38.0194 34.7439 38.1278 34.8584C38.2361 34.973 38.366 35.0651 38.5099 35.1294C38.6539 35.1937 38.8091 35.229 38.9667 35.2334C39.2914 35.2338 39.6038 35.1095 39.8396 34.8862C40.0753 34.6629 40.2162 34.3576 40.2333 34.0334C40.4667 32.2667 40.7333 30.7 40.9 28.7667V26.5334V24.3C40.6667 22.5334 40.2667 20.9667 40 19.1334C40.0005 18.8528 39.8938 18.5827 39.7017 18.3782C39.5097 18.1737 39.2467 18.0504 38.9667 18.0334C38.8238 18.0289 38.6815 18.0532 38.5482 18.1048C38.4149 18.1564 38.2934 18.2342 38.1908 18.3337C38.0882 18.4332 38.0066 18.5523 37.9509 18.684C37.8953 18.8156 37.8666 18.9571 37.8667 19.1C37.478 20.8377 37.1886 22.5961 37 24.3667V26.6334V28.8334C37.2667 30.6 37.6 32.2667 37.8 34Z" fill="#00E1FF"/>
<path fill-rule="evenodd" clip-rule="evenodd" d="M55.6 34C55.5955 34.1576 55.6222 34.3146 55.6784 34.4619C55.7347 34.6091 55.8194 34.7439 55.9277 34.8584C56.0361 34.973 56.1659 35.0651 56.3099 35.1294C56.4538 35.1937 56.609 35.229 56.7666 35.2334C57.0913 35.2338 57.4038 35.1095 57.6395 34.8862C57.8752 34.6629 58.0162 34.3576 58.0333 34.0334C58.2666 32.2667 58.5333 30.7 58.7 28.7667V26.5334V24.3C58.4666 22.5334 58.0666 20.9667 57.8 19.1334C57.8 18.9861 57.7705 18.8402 57.7131 18.7046C57.6558 18.5689 57.5718 18.4461 57.4661 18.3435C57.3604 18.2409 57.2351 18.1606 57.0978 18.1073C56.9605 18.054 56.8139 18.0289 56.6666 18.0334C56.5238 18.0289 56.3815 18.0532 56.2482 18.1048C56.1149 18.1564 55.9933 18.2342 55.8907 18.3337C55.7881 18.4332 55.7066 18.5523 55.6509 18.684C55.5952 18.8156 55.5665 18.9571 55.5666 19.1C55.1779 20.8377 54.8886 22.5961 54.7 24.3667V26.6334C54.7 27.4 54.6999 28.1 54.8666 28.8334C55.0666 30.6 55.4 32.2667 55.6 34Z" fill="#00E1FF"/>
<path fill-rule="evenodd" clip-rule="evenodd" d="M46.2 43.6667C46.2044 43.8287 46.2406 43.9882 46.3066 44.1362C46.3726 44.2842 46.4671 44.4177 46.5847 44.5292C46.7024 44.6406 46.8408 44.7278 46.9921 44.7857C47.1435 44.8436 47.3047 44.8711 47.4667 44.8667C47.6229 44.8625 47.7766 44.827 47.9188 44.7622C48.0609 44.6975 48.1887 44.6049 48.2944 44.4898C48.4001 44.3748 48.4816 44.2397 48.5341 44.0926C48.5866 43.9455 48.609 43.7893 48.6 43.6334C48.8 40.3 49.0334 36.9667 49.1667 33.6334V29.3V25C49 21.6667 48.6 18.3334 48.4334 15C48.4335 14.714 48.3222 14.4391 48.1231 14.2338C47.9239 14.0284 47.6526 13.9087 47.3667 13.9C47.092 13.9079 46.8301 14.0183 46.6327 14.2095C46.4353 14.4008 46.3166 14.659 46.3 14.9334C45.9 18.2667 45.4667 21.6 45.3 24.9334V29.2667V33.6C45.5334 36.9667 45.9334 40.3 46.2 43.6667Z" fill="#00E1FF"/>
</g>
<defs>
<clipPath id="clip0_4_204">
<rect width="80" height="80" fill="white"/>
</clipPath>
</defs>
</svg>
